<mxfile host="Electron" modified="2024-03-31T22:34:31.611Z" agent="Mozilla/5.0 (Windows NT 10.0; Win64; x64) AppleWebKit/537.36 (KHTML, like Gecko) draw.io/24.1.0 Chrome/120.0.6099.109 Electron/28.1.0 Safari/537.36" etag="TvK-qQO8VK5xbWS1qc_p" version="24.1.0" type="device">
  <diagram id="C5RBs43oDa-KdzZeNtuy" name="Page-1">
    <mxGraphModel dx="858" dy="516" grid="1" gridSize="10" guides="1" tooltips="1" connect="1" arrows="1" fold="1" page="1" pageScale="1" pageWidth="827" pageHeight="1169" math="0" shadow="0">
      <root>
        <mxCell id="WIyWlLk6GJQsqaUBKTNV-0" />
        <mxCell id="WIyWlLk6GJQsqaUBKTNV-1" parent="WIyWlLk6GJQsqaUBKTNV-0" />
        <mxCell id="zkfFHV4jXpPFQw0GAbJ--0" value="INDEX" style="swimlane;fontStyle=2;align=center;verticalAlign=top;childLayout=stackLayout;horizontal=1;startSize=26;horizontalStack=0;resizeParent=1;resizeLast=0;collapsible=1;marginBottom=0;rounded=0;shadow=0;strokeWidth=1;" parent="WIyWlLk6GJQsqaUBKTNV-1" vertex="1">
          <mxGeometry x="319" y="70" width="160" height="80" as="geometry">
            <mxRectangle x="230" y="140" width="160" height="26" as="alternateBounds" />
          </mxGeometry>
        </mxCell>
        <mxCell id="zkfFHV4jXpPFQw0GAbJ--1" value="Login   " style="text;align=left;verticalAlign=top;spacingLeft=4;spacingRight=4;overflow=hidden;rotatable=0;points=[[0,0.5],[1,0.5]];portConstraint=eastwest;" parent="zkfFHV4jXpPFQw0GAbJ--0" vertex="1">
          <mxGeometry y="26" width="160" height="26" as="geometry" />
        </mxCell>
        <mxCell id="zkfFHV4jXpPFQw0GAbJ--2" value="Registro" style="text;align=left;verticalAlign=top;spacingLeft=4;spacingRight=4;overflow=hidden;rotatable=0;points=[[0,0.5],[1,0.5]];portConstraint=eastwest;rounded=0;shadow=0;html=0;" parent="zkfFHV4jXpPFQw0GAbJ--0" vertex="1">
          <mxGeometry y="52" width="160" height="26" as="geometry" />
        </mxCell>
        <mxCell id="zkfFHV4jXpPFQw0GAbJ--6" value="Pacientes" style="swimlane;fontStyle=0;align=center;verticalAlign=top;childLayout=stackLayout;horizontal=1;startSize=26;horizontalStack=0;resizeParent=1;resizeLast=0;collapsible=1;marginBottom=0;rounded=0;shadow=0;strokeWidth=1;" parent="WIyWlLk6GJQsqaUBKTNV-1" vertex="1">
          <mxGeometry x="319" y="320" width="160" height="130" as="geometry">
            <mxRectangle x="130" y="380" width="160" height="26" as="alternateBounds" />
          </mxGeometry>
        </mxCell>
        <mxCell id="zkfFHV4jXpPFQw0GAbJ--7" value="Solicitar turno" style="text;align=left;verticalAlign=top;spacingLeft=4;spacingRight=4;overflow=hidden;rotatable=0;points=[[0,0.5],[1,0.5]];portConstraint=eastwest;" parent="zkfFHV4jXpPFQw0GAbJ--6" vertex="1">
          <mxGeometry y="26" width="160" height="26" as="geometry" />
        </mxCell>
        <mxCell id="zkfFHV4jXpPFQw0GAbJ--9" value="" style="line;html=1;strokeWidth=1;align=left;verticalAlign=middle;spacingTop=-1;spacingLeft=3;spacingRight=3;rotatable=0;labelPosition=right;points=[];portConstraint=eastwest;" parent="zkfFHV4jXpPFQw0GAbJ--6" vertex="1">
          <mxGeometry y="52" width="160" height="8" as="geometry" />
        </mxCell>
        <mxCell id="mDpSFeU6Mr5WM-bIMPV8-18" value="Modificar o cancelar" style="text;align=left;verticalAlign=top;spacingLeft=4;spacingRight=4;overflow=hidden;rotatable=0;points=[[0,0.5],[1,0.5]];portConstraint=eastwest;rounded=0;shadow=0;html=0;" parent="zkfFHV4jXpPFQw0GAbJ--6" vertex="1">
          <mxGeometry y="60" width="160" height="26" as="geometry" />
        </mxCell>
        <mxCell id="mDpSFeU6Mr5WM-bIMPV8-9" value="" style="line;html=1;strokeWidth=1;align=left;verticalAlign=middle;spacingTop=-1;spacingLeft=3;spacingRight=3;rotatable=0;labelPosition=right;points=[];portConstraint=eastwest;" parent="zkfFHV4jXpPFQw0GAbJ--6" vertex="1">
          <mxGeometry y="86" width="160" height="8" as="geometry" />
        </mxCell>
        <mxCell id="zkfFHV4jXpPFQw0GAbJ--10" value="Consulta" style="text;align=left;verticalAlign=top;spacingLeft=4;spacingRight=4;overflow=hidden;rotatable=0;points=[[0,0.5],[1,0.5]];portConstraint=eastwest;fontStyle=4" parent="zkfFHV4jXpPFQw0GAbJ--6" vertex="1">
          <mxGeometry y="94" width="160" height="26" as="geometry" />
        </mxCell>
        <mxCell id="mDpSFeU6Mr5WM-bIMPV8-2" style="edgeStyle=orthogonalEdgeStyle;rounded=0;orthogonalLoop=1;jettySize=auto;html=1;exitX=1;exitY=0.5;exitDx=0;exitDy=0;entryX=0;entryY=0.5;entryDx=0;entryDy=0;" parent="WIyWlLk6GJQsqaUBKTNV-1" source="mDpSFeU6Mr5WM-bIMPV8-0" target="mDpSFeU6Mr5WM-bIMPV8-3" edge="1">
          <mxGeometry relative="1" as="geometry">
            <mxPoint x="559" y="240" as="targetPoint" />
          </mxGeometry>
        </mxCell>
        <mxCell id="mDpSFeU6Mr5WM-bIMPV8-0" value="" style="rhombus;whiteSpace=wrap;html=1;" parent="WIyWlLk6GJQsqaUBKTNV-1" vertex="1">
          <mxGeometry x="359" y="200" width="80" height="80" as="geometry" />
        </mxCell>
        <mxCell id="mDpSFeU6Mr5WM-bIMPV8-3" value="REGISTRO" style="rounded=0;whiteSpace=wrap;html=1;" parent="WIyWlLk6GJQsqaUBKTNV-1" vertex="1">
          <mxGeometry x="579" y="210" width="120" height="60" as="geometry" />
        </mxCell>
        <mxCell id="mDpSFeU6Mr5WM-bIMPV8-4" value="" style="endArrow=classic;html=1;rounded=0;exitX=0.5;exitY=0;exitDx=0;exitDy=0;entryX=1;entryY=0.5;entryDx=0;entryDy=0;" parent="WIyWlLk6GJQsqaUBKTNV-1" source="mDpSFeU6Mr5WM-bIMPV8-3" target="zkfFHV4jXpPFQw0GAbJ--1" edge="1">
          <mxGeometry width="50" height="50" relative="1" as="geometry">
            <mxPoint x="639" y="180" as="sourcePoint" />
            <mxPoint x="489" y="80" as="targetPoint" />
            <Array as="points">
              <mxPoint x="640" y="110" />
            </Array>
          </mxGeometry>
        </mxCell>
        <mxCell id="mDpSFeU6Mr5WM-bIMPV8-5" value="" style="endArrow=none;html=1;rounded=0;exitX=0.5;exitY=0;exitDx=0;exitDy=0;entryX=0.5;entryY=1;entryDx=0;entryDy=0;" parent="WIyWlLk6GJQsqaUBKTNV-1" source="mDpSFeU6Mr5WM-bIMPV8-0" target="zkfFHV4jXpPFQw0GAbJ--0" edge="1">
          <mxGeometry width="50" height="50" relative="1" as="geometry">
            <mxPoint x="499" y="260" as="sourcePoint" />
            <mxPoint x="399" y="160" as="targetPoint" />
          </mxGeometry>
        </mxCell>
        <mxCell id="mDpSFeU6Mr5WM-bIMPV8-6" value="" style="endArrow=none;html=1;rounded=0;entryX=0.5;entryY=1;entryDx=0;entryDy=0;" parent="WIyWlLk6GJQsqaUBKTNV-1" target="mDpSFeU6Mr5WM-bIMPV8-0" edge="1">
          <mxGeometry width="50" height="50" relative="1" as="geometry">
            <mxPoint x="399" y="320" as="sourcePoint" />
            <mxPoint x="549" y="260" as="targetPoint" />
          </mxGeometry>
        </mxCell>
        <mxCell id="mDpSFeU6Mr5WM-bIMPV8-11" value="" style="endArrow=none;html=1;rounded=0;" parent="WIyWlLk6GJQsqaUBKTNV-1" target="mDpSFeU6Mr5WM-bIMPV8-12" edge="1">
          <mxGeometry width="50" height="50" relative="1" as="geometry">
            <mxPoint x="519" y="480" as="sourcePoint" />
            <mxPoint x="639" y="400" as="targetPoint" />
            <Array as="points" />
          </mxGeometry>
        </mxCell>
        <mxCell id="mDpSFeU6Mr5WM-bIMPV8-12" value="Canal de atención (Whatsapp)" style="rounded=0;whiteSpace=wrap;html=1;" parent="WIyWlLk6GJQsqaUBKTNV-1" vertex="1">
          <mxGeometry x="579" y="340" width="120" height="60" as="geometry" />
        </mxCell>
        <mxCell id="mDpSFeU6Mr5WM-bIMPV8-13" value="Formulario de consulta" style="rounded=0;whiteSpace=wrap;html=1;" parent="WIyWlLk6GJQsqaUBKTNV-1" vertex="1">
          <mxGeometry x="579" y="450" width="120" height="60" as="geometry" />
        </mxCell>
        <mxCell id="mDpSFeU6Mr5WM-bIMPV8-14" value="" style="endArrow=none;html=1;rounded=0;entryX=0;entryY=0.5;entryDx=0;entryDy=0;exitX=0.5;exitY=1;exitDx=0;exitDy=0;" parent="WIyWlLk6GJQsqaUBKTNV-1" source="zkfFHV4jXpPFQw0GAbJ--6" target="mDpSFeU6Mr5WM-bIMPV8-13" edge="1">
          <mxGeometry width="50" height="50" relative="1" as="geometry">
            <mxPoint x="399" y="460" as="sourcePoint" />
            <mxPoint x="623" y="440" as="targetPoint" />
            <Array as="points">
              <mxPoint x="399" y="480" />
            </Array>
          </mxGeometry>
        </mxCell>
        <mxCell id="mDpSFeU6Mr5WM-bIMPV8-15" value="" style="rounded=0;whiteSpace=wrap;html=1;" parent="WIyWlLk6GJQsqaUBKTNV-1" vertex="1">
          <mxGeometry x="339" y="520" width="120" height="60" as="geometry" />
        </mxCell>
        <mxCell id="mDpSFeU6Mr5WM-bIMPV8-16" value="" style="rounded=0;whiteSpace=wrap;html=1;" parent="WIyWlLk6GJQsqaUBKTNV-1" vertex="1">
          <mxGeometry x="339" y="600" width="120" height="60" as="geometry" />
        </mxCell>
        <mxCell id="mDpSFeU6Mr5WM-bIMPV8-17" value="" style="rounded=0;whiteSpace=wrap;html=1;" parent="WIyWlLk6GJQsqaUBKTNV-1" vertex="1">
          <mxGeometry x="339" y="680" width="120" height="60" as="geometry" />
        </mxCell>
        <mxCell id="mDpSFeU6Mr5WM-bIMPV8-19" style="edgeStyle=orthogonalEdgeStyle;rounded=0;orthogonalLoop=1;jettySize=auto;html=1;entryX=0;entryY=0.5;entryDx=0;entryDy=0;" parent="WIyWlLk6GJQsqaUBKTNV-1" source="mDpSFeU6Mr5WM-bIMPV8-18" target="mDpSFeU6Mr5WM-bIMPV8-15" edge="1">
          <mxGeometry relative="1" as="geometry">
            <mxPoint x="279" y="560" as="targetPoint" />
          </mxGeometry>
        </mxCell>
        <mxCell id="mDpSFeU6Mr5WM-bIMPV8-20" value="" style="endArrow=none;html=1;rounded=0;entryX=0.5;entryY=1;entryDx=0;entryDy=0;exitX=0.5;exitY=0;exitDx=0;exitDy=0;" parent="WIyWlLk6GJQsqaUBKTNV-1" source="mDpSFeU6Mr5WM-bIMPV8-16" target="mDpSFeU6Mr5WM-bIMPV8-15" edge="1">
          <mxGeometry width="50" height="50" relative="1" as="geometry">
            <mxPoint x="359" y="670" as="sourcePoint" />
            <mxPoint x="409" y="620" as="targetPoint" />
          </mxGeometry>
        </mxCell>
        <mxCell id="mDpSFeU6Mr5WM-bIMPV8-21" value="" style="endArrow=none;html=1;rounded=0;entryX=0.5;entryY=1;entryDx=0;entryDy=0;exitX=0.5;exitY=0;exitDx=0;exitDy=0;" parent="WIyWlLk6GJQsqaUBKTNV-1" source="mDpSFeU6Mr5WM-bIMPV8-17" target="mDpSFeU6Mr5WM-bIMPV8-16" edge="1">
          <mxGeometry width="50" height="50" relative="1" as="geometry">
            <mxPoint x="359" y="670" as="sourcePoint" />
            <mxPoint x="409" y="620" as="targetPoint" />
          </mxGeometry>
        </mxCell>
        <mxCell id="mDpSFeU6Mr5WM-bIMPV8-22" value="" style="rounded=0;whiteSpace=wrap;html=1;" parent="WIyWlLk6GJQsqaUBKTNV-1" vertex="1">
          <mxGeometry x="129" y="390" width="120" height="60" as="geometry" />
        </mxCell>
        <mxCell id="mDpSFeU6Mr5WM-bIMPV8-23" value="" style="rounded=0;whiteSpace=wrap;html=1;" parent="WIyWlLk6GJQsqaUBKTNV-1" vertex="1">
          <mxGeometry x="129" y="470" width="120" height="60" as="geometry" />
        </mxCell>
        <mxCell id="mDpSFeU6Mr5WM-bIMPV8-24" value="" style="rounded=0;whiteSpace=wrap;html=1;" parent="WIyWlLk6GJQsqaUBKTNV-1" vertex="1">
          <mxGeometry x="129" y="550" width="120" height="60" as="geometry" />
        </mxCell>
        <mxCell id="mDpSFeU6Mr5WM-bIMPV8-25" value="" style="rounded=0;whiteSpace=wrap;html=1;" parent="WIyWlLk6GJQsqaUBKTNV-1" vertex="1">
          <mxGeometry x="129" y="630" width="120" height="60" as="geometry" />
        </mxCell>
        <mxCell id="mDpSFeU6Mr5WM-bIMPV8-26" value="" style="endArrow=none;html=1;rounded=0;entryX=0;entryY=0.5;entryDx=0;entryDy=0;exitX=0.5;exitY=0;exitDx=0;exitDy=0;" parent="WIyWlLk6GJQsqaUBKTNV-1" source="mDpSFeU6Mr5WM-bIMPV8-22" target="zkfFHV4jXpPFQw0GAbJ--7" edge="1">
          <mxGeometry width="50" height="50" relative="1" as="geometry">
            <mxPoint x="179" y="359" as="sourcePoint" />
            <mxPoint x="369" y="490" as="targetPoint" />
            <Array as="points">
              <mxPoint x="189" y="359" />
            </Array>
          </mxGeometry>
        </mxCell>
        <mxCell id="mDpSFeU6Mr5WM-bIMPV8-27" value="" style="endArrow=none;html=1;rounded=0;entryX=0.5;entryY=1;entryDx=0;entryDy=0;exitX=0.5;exitY=0;exitDx=0;exitDy=0;" parent="WIyWlLk6GJQsqaUBKTNV-1" source="mDpSFeU6Mr5WM-bIMPV8-23" target="mDpSFeU6Mr5WM-bIMPV8-22" edge="1">
          <mxGeometry width="50" height="50" relative="1" as="geometry">
            <mxPoint x="319" y="540" as="sourcePoint" />
            <mxPoint x="369" y="490" as="targetPoint" />
          </mxGeometry>
        </mxCell>
        <mxCell id="mDpSFeU6Mr5WM-bIMPV8-28" value="" style="endArrow=none;html=1;rounded=0;entryX=0.5;entryY=1;entryDx=0;entryDy=0;exitX=0.5;exitY=0;exitDx=0;exitDy=0;" parent="WIyWlLk6GJQsqaUBKTNV-1" source="mDpSFeU6Mr5WM-bIMPV8-24" target="mDpSFeU6Mr5WM-bIMPV8-23" edge="1">
          <mxGeometry width="50" height="50" relative="1" as="geometry">
            <mxPoint x="319" y="540" as="sourcePoint" />
            <mxPoint x="369" y="490" as="targetPoint" />
          </mxGeometry>
        </mxCell>
        <mxCell id="mDpSFeU6Mr5WM-bIMPV8-29" value="" style="endArrow=none;html=1;rounded=0;entryX=0.5;entryY=1;entryDx=0;entryDy=0;exitX=0.5;exitY=0;exitDx=0;exitDy=0;" parent="WIyWlLk6GJQsqaUBKTNV-1" source="mDpSFeU6Mr5WM-bIMPV8-25" target="mDpSFeU6Mr5WM-bIMPV8-24" edge="1">
          <mxGeometry width="50" height="50" relative="1" as="geometry">
            <mxPoint x="319" y="540" as="sourcePoint" />
            <mxPoint x="369" y="490" as="targetPoint" />
          </mxGeometry>
        </mxCell>
        <mxCell id="mDpSFeU6Mr5WM-bIMPV8-30" value="NO" style="text;html=1;align=center;verticalAlign=middle;resizable=0;points=[];autosize=1;strokeColor=none;fillColor=none;" parent="WIyWlLk6GJQsqaUBKTNV-1" vertex="1">
          <mxGeometry x="490" y="210" width="40" height="30" as="geometry" />
        </mxCell>
        <mxCell id="mDpSFeU6Mr5WM-bIMPV8-31" value="SI" style="text;html=1;align=center;verticalAlign=middle;resizable=0;points=[];autosize=1;strokeColor=none;fillColor=none;" parent="WIyWlLk6GJQsqaUBKTNV-1" vertex="1">
          <mxGeometry x="359" y="280" width="30" height="30" as="geometry" />
        </mxCell>
      </root>
    </mxGraphModel>
  </diagram>
</mxfile>
